<?xml version="1.0" encoding="utf-8"?>
<svg version="1.1" id="Layer_1" xmlns="http://www.w3.org/2000/svg" xmlns:xlink="http://www.w3.org/1999/xlink" x="0px" y="0px"
	 width="64px" height="64px" viewBox="0 0 64 64" enable-background="new 0 0 64 64" xml:space="preserve">
<path fill="#6C707E" d="M9.5,49.1l3.2-9.2h13.5l3.2,9.2H35L22.5,14.4h-6L4,49.1H9.5z M14.3,35.5l5.1-14.8h0.3l5.1,14.8H14.3z"/>
<path fill="#6C707E" d="M47.2,49.6c4.3,0,6.7-2.2,7.7-4.1h0.2v3.6H60V31.8c0-7.6-6-9.1-10.1-9.1c-4.7,0-9,1.9-10.7,6.6l4.8,1.1
	c0.7-1.8,2.6-3.6,6-3.6c3.3,0,4.9,1.7,4.9,4.7v0.1c0,1.8-1.9,1.8-6.6,2.4c-4.9,0.6-10,1.9-10,7.8C38.4,46.8,42.2,49.6,47.2,49.6z
	 M48.3,45.6c-2.9,0-4.9-1.3-4.9-3.8c0-2.7,2.4-3.7,5.3-4.1c1.6-0.2,5.5-0.7,6.3-1.4v3.4C54.9,42.8,52.5,45.6,48.3,45.6z"/>
</svg>
